<svg xmlns="http://www.w3.org/2000/svg" xmlns:xlink="http://www.w3.org/1999/xlink" viewBox="0 0 170 422"><defs><style>.cls-1{isolation:isolate;}.cls-2{fill:#0a3567;}.cls-3{fill:#00386a;}.cls-4{fill:#1e6290;opacity:0.57;}.cls-5{fill:#fff;}.cls-6{fill:#e2bd9f;}.cls-7{fill:#e28b44;}.cls-8{fill:#f2cdb1;}.cls-9{fill:#383d56;}.cls-10{fill:url(#linear-gradient);}.cls-11{fill:#cd9279;}.cls-12{opacity:0.6;mix-blend-mode:soft-light;}.cls-13{fill:#e50a0a;}</style><linearGradient id="linear-gradient" x1="74.05" y1="49.12" x2="99.98" y2="49.12" gradientUnits="userSpaceOnUse"><stop offset="0" stop-color="#d9ac92"/><stop offset="1" stop-color="#f2cdb1"/></linearGradient></defs><g class="cls-1"><g id="graph"><path class="cls-2" d="M112.82,414.34a8,8,0,0,0,.51,4.79l7.1.16,1-1.59,9.62,2.62,6.15-.27s1-1.61-.51-1.92c-.44-.09-5.88-2.26-5.88-2.26l-5.2-3.54S120,413,112.82,414.34Z"/><path class="cls-3" d="M45.75,159.3c-6.51,20-8.06,21.85-12.59,44.39,2.26,1.6,5.52,2.24,9.94,3-.88,37.18-2.1,75.26,2.78,115-1.62,46-1.86,67.74-3.36,91.55l17.86.66s16.09-59.12,11.41-104.63c3.49-17.5,13.52-73.85,14.24-82,2.81,16.1,8.07,65,12,80.67-.36,22.19,12.31,107,12.31,107l17.42-2.45c-1.42-14.32-.15-69.3-2.94-95.1,6.51-74-1.21-111.42-1.21-111.42a32.58,32.58,0,0,0,11.53-4s-4.56-15.49-12.22-44c1.37-27.33,16.2-90,16.2-90-.4-.07-30.61-11.53-30.61-11.53l-6-5.38s-1.94-2.6-15.59-2.6-15.75,2.58-15.75,2.58l-7,5.7L32.55,68.54S45.94,127.13,45.75,159.3Z"/><path class="cls-4" d="M115.17,77.64c-3.58,2-6.23,3.18-6.23,3.18A48.19,48.19,0,0,1,116,87.21c-2.19,5-6.78,19-11,31.78.79-20.83,1-37.28,1.93-49.26.7-8.84,1.57-8.51,1.57-8.51S113.64,70,115.17,77.64Z"/><path class="cls-5" d="M62.08,177.65c1.84-17.2,3.18-29.05,3.83-41,2.48-46.17-.24-61.3,5.23-83.18a14.81,14.81,0,0,1,2-4c1.67-2.36,23.36-3.78,27.77-.1.24.4,1.77,3.42,2,3.95,2.49,13.58-.76,45-1.7,80.6-.48,18.21,3.68,42.82,3.68,42.82s-15-.67-20.56-.22C78.55,177,66.91,177.14,62.08,177.65Z"/><path class="cls-2" d="M58.14,412.41c.56,2.27-.32,6.36-.32,6.36l-5.66.46-.7-.76-13,2.58-6.51.34s-.47-2.19.94-2.47c.4-.08,5.46-2.24,5.46-2.24l4.82-4.09S51.39,412.75,58.14,412.41Z"/><path class="cls-4" d="M57.28,77.64a37.23,37.23,0,0,1,5.11,4.77s-1.74,2-5,5.94c.4,5.37,4.35,18.48,6.4,31.79.85-20.6,2-26.58,2.32-39.25a176,176,0,0,0-.64-18.2S59.37,70.74,57.28,77.64Z"/><path class="cls-6" d="M89.24,62.66a62.66,62.66,0,0,0,9-6,7,7,0,0,0,2.66-4.84c0-.73,0-2.44,0-2.44l1.95,3.8a16.67,16.67,0,0,1-7,15.22A32.37,32.37,0,0,1,89.24,62.66Z"/><path class="cls-7" d="M87.18,64.28a10,10,0,0,0-5,3.15c-.77,2,2.45,4.91,2.45,4.91a121.4,121.4,0,0,0-7,30.19C74.71,130,76,163.75,76,163.75l8.9,9.11L94,162.76S92.55,139,91.61,110.89C91,92.16,89.55,72.15,89.55,72.15s1.78-.9,3.66-4.08A16.81,16.81,0,0,0,87.18,64.28Z"/><path class="cls-8" d="M68,117,64.49,117c-2.39,0-9.47,1-11.4.82-1.36-.08-5.9-.6-5.2-2.46.45-1.17-.13-2.38.35-3A3,3,0,0,0,49,111c.2-1,0-1.66,1-2.38s.55-1.29,1.38-2.08c.39-.37,2-.28,2-.28s4.36-.23,6.54.69c2.84,1.21,5.82,2.53,5.82,2.53l3.46.75Z"/><path class="cls-3" d="M63.09,119.15c.27-2.64,1.93-9.4,1.86-11.45,29.08,8.7,51.44,7.92,59.65,9.24,3.55-15.31-6.1-31.32-6.1-31.32l20.65-17.57s2.63,4,4.2,12.94c3.2,18.12,9.53,50.23.36,56.6C127.84,140.76,96.46,131.56,63.09,119.15Z"/><path class="cls-8" d="M102.41,117.28s2.34-.58,3.48-1c1.52.9,9.07-.4,9.07-.4l6.17-.59s3.07.64,5.23,1a1,1,0,0,0,1.1-.73h1.08c.84,0,1.55-.72,1.06-1.18a1,1,0,0,0,.34-1.44c-.51-.22-4.6-1.5-4.6-1.5s3.22.26,4-.4a.64.64,0,0,0,.13-.87c-2.56-.85-11-2.52-11.25-2.5-.87.06-3.32.23-6.22.62a27.38,27.38,0,0,0-6.79,2l-4.13.74Z"/><path class="cls-4" d="M82.46,126.21l6.16,2s16.17-5.91,17.22-8.82a75.08,75.08,0,0,0-22.39-7.15,113.28,113.28,0,0,0-18.39,3.56Z"/><path class="cls-3" d="M108.18,119.19c-1-2.91-1.9-6.6-3-9.77-28.92,7.06-50.16,6.2-58.36,7.52-3.56-15.31,5.62-31.32,5.62-31.32L32.55,68.54s-3.89,5.86-5.7,17.25c-2.86,18-9.66,47.29-1.28,53.11C41.43,142.06,74.8,131.59,108.18,119.19Z"/><path class="cls-9" d="M72.18,7.94c2.38-.83,3.4-1.64,3.72-4.46,9.1-5.36,23.32-1.3,24.77,5.16,6.2,1.64,5.91,8,1.2,22.24-5.58.88-27.36,1-30.57,1C65.85,16.4,66.66,10.75,72.18,7.94Z"/><path class="cls-10" d="M100,37.38c-1.7,1.36-6.18,13.11-8.51,12.11-2.6-1.11-7.54-.29-9.49.41s-6-8.06-7.9-10.65c0,3.8,0,11,0,12.33.56,1.19,6.26,8.38,13.07,9.29,3.68-.43,12.52-6.33,12.81-9.32C99.94,49.81,99.92,39.88,100,37.38Z"/><path class="cls-8" d="M97.63,11.71c4.46,6.72.06,12.28,2.73,18.26,1.1-3,2.44-3.76,3-3.84,1.1.7.42,2.09-2.19,8.43-1.31,3.7-5.38,14-6.84,15.43-.57.48-13.94.91-14.53.31-1.33-1.16-5.18-8.48-7.78-14.87-2-4.49-3.78-7.73-1.66-8.85.68.47,1.42,2.73,2,4.75,3.14-7.25-1.74-13.19,3.56-19.53,2.78,0,5.14,1.29,11.25,1.12C92.56,12.78,94.44,11.86,97.63,11.71Z"/><path class="cls-11" d="M88,34a2.93,2.93,0,0,1-1.38.51A2.19,2.19,0,0,1,85.3,34c-.65-.53-1.53.76-1.53.76a7.8,7.8,0,0,0,2.83.54,8.52,8.52,0,0,0,2.85-.59S88.88,33.58,88,34Z"/><path class="cls-9" d="M97,24.32s.09-.73-1.88-1.15a13.77,13.77,0,0,0-5.21.2c-1.52.28-1.11,1.48-1.11,1.48s.79.29,1.76.58l-.43.12c-.41.08-.73.18-.73.3,0,.59,2.13,1.23,2.7,1.23a.67.67,0,0,0,.78-.7c.69,0,1.32,0,1.81,0s.6-.17.69-.26l-.12-.06s0,0,0,0l-.11,0a5.66,5.66,0,0,0-.68-.3,17.19,17.19,0,0,0-3.82-1.05l-.18,0,2.86-.39A11,11,0,0,1,97,24.32Z"/><path class="cls-9" d="M84.07,24.85a.08.08,0,0,1,0,0c0-.17.26-1.19-1.12-1.45a13.56,13.56,0,0,0-5.17-.2c-2,.42-1.86,1.15-1.86,1.15a10.79,10.79,0,0,1,3.65-.07l2.85.4h-.19a16.31,16.31,0,0,0-3.83,1.06l-.63.28-.11.06h0l-.11.06c.08.09.16.26.68.26s1.11,0,1.79,0a.67.67,0,0,0,.78.7c.57,0,2.65-.64,2.68-1.23,0-.12-.31-.22-.73-.3l-.43-.12C83.28,25.14,84.07,24.85,84.07,24.85Z"/><path class="cls-6" d="M84.75,62.66a62.82,62.82,0,0,1-9-6,7.06,7.06,0,0,1-2.67-4.84c0-.73,0-2.44,0-2.44l-1.94,3.8a16.68,16.68,0,0,0,7,15.22A32,32,0,0,0,84.75,62.66Z"/><g class="cls-12"><path class="cls-13" d="M59.85,107c-2.18-.92-6.54-.69-6.54-.69s-1.56-.09-2,.28c-.83.79-.53,1.4-1.38,2.08S49.22,110,49,111a3,3,0,0,1-.78,1.32c-.48.61.1,1.82-.35,3-.7,1.86,3.84,2.38,5.2,2.46,1.93.13,9-.86,11.4-.82L68,117l1.12-6.8-3.46-.75S62.69,108.16,59.85,107Z"/><path class="cls-13" d="M125.34,111.48s3.22.26,4-.4a.64.64,0,0,0,.13-.87c-2.56-.85-11-2.52-11.25-2.5-.87.06-3.32.23-6.22.62a27.38,27.38,0,0,0-6.79,2l-4.13.74,1.36,6.2s2.34-.58,3.48-1c1.52.9,9.07-.4,9.07-.4l6.17-.59s3.07.64,5.23,1a1,1,0,0,0,1.1-.73h1.08c.84,0,1.55-.72,1.06-1.18a1,1,0,0,0,.34-1.44C129.43,112.76,125.34,111.48,125.34,111.48Z"/><path class="cls-13" d="M100,37.74c.49-1.26.91-2.38,1.19-3.18,2.61-6.34,3.29-7.73,2.2-8.43,3.19-10.92,2.77-16-2.69-17.49C99.22,2.18,85-1.88,75.9,3.48c-.32,2.82-1.34,3.63-3.72,4.46-4.91,2.49-6.09,7.25-2.46,19.17-1,1.44.54,4.41,2.29,8.32.63,1.55,1.34,3.16,2.07,4.72,0,3.94,0,10.17,0,11.43.56,1.19,6.26,8.38,13.07,9.29,3.68-.43,12.52-6.33,12.81-9.32C99.94,49.88,99.92,40.69,100,37.74Z"/></g></g></g></svg>