<svg id="icon" xmlns="http://www.w3.org/2000/svg" viewBox="0 0 64 64"><defs><style>.cls-1{fill:#939393;fill-rule:evenodd;}</style></defs><path class="cls-1" d="M32.1,2.6a30.11,30.11,0,0,0-9.51,58.67c1.5.27,2.05-.66,2.05-1.46s0-2.6,0-5.12c-8.37,1.82-10.14-4-10.14-4-1.37-3.48-3.34-4.4-3.34-4.4-2.73-1.87.21-1.83.21-1.83a6.31,6.31,0,0,1,4.61,3.1c2.68,4.6,7,3.27,8.76,2.5a6.44,6.44,0,0,1,1.91-4c-6.69-.75-13.71-3.34-13.71-14.87A11.61,11.61,0,0,1,16,23.05a10.81,10.81,0,0,1,.29-8s2.53-.81,8.28,3.09a28.34,28.34,0,0,1,15.07,0c5.75-3.9,8.27-3.09,8.27-3.09a10.77,10.77,0,0,1,.3,8,11.61,11.61,0,0,1,3.1,8.08c0,11.56-7,14.11-13.75,14.85,1.08.93,2,2.77,2,5.58,0,4,0,7.27,0,8.25,0,.81.54,1.75,2.07,1.45A30.1,30.1,0,0,0,32.1,2.6Z"/></svg>