<svg id="icon" xmlns="http://www.w3.org/2000/svg" viewBox="0 0 64 64"><defs><style>.cls-1{fill:#939393;}</style></defs><path class="cls-1" d="M58.58,31.63a24.27,24.27,0,0,0-2.09-10.06,26,26,0,0,0-5.7-8.13A27,27,0,0,0,32,6,27.11,27.11,0,0,0,21.62,8a26.75,26.75,0,0,0-8.43,5.46,25.89,25.89,0,0,0-5.68,8.13A24.27,24.27,0,0,0,5.42,31.63a24.11,24.11,0,0,0,2.09,10,26,26,0,0,0,5.68,8.16A26.83,26.83,0,0,0,32,57.29a27.8,27.8,0,0,0,7.31-.95,26.71,26.71,0,0,0,6.55-2.77L51,58.73a4.27,4.27,0,1,0,6.06-6l-4.61-4.61a25.94,25.94,0,0,0,4.53-7.55A24.06,24.06,0,0,0,58.58,31.63ZM48.22,38.72A17.41,17.41,0,0,1,32,49.53a17.36,17.36,0,0,1-12.41-5.14,18.21,18.21,0,0,1,0-25.49,17.47,17.47,0,0,1,5.57-3.77A17.23,17.23,0,0,1,32,13.76,17.34,17.34,0,0,1,48.22,24.59a18.77,18.77,0,0,1,0,14.13Z"/></svg>