<svg id="icon" xmlns="http://www.w3.org/2000/svg" viewBox="0 0 64 64"><defs><style>.cls-1{fill:#939393;}</style></defs><path class="cls-1" d="M21.15,57.73c22.49,0,34.79-18.63,34.79-34.79,0-.53,0-1.05,0-1.58A24.81,24.81,0,0,0,62,15,24.66,24.66,0,0,1,55,17a12.28,12.28,0,0,0,5.37-6.77,24.46,24.46,0,0,1-7.76,3A12.23,12.23,0,0,0,31.76,24.31,34.73,34.73,0,0,1,6.56,11.54a12.22,12.22,0,0,0,3.78,16.32A12.11,12.11,0,0,1,4.8,26.33v.16a12.23,12.23,0,0,0,9.81,12,12.21,12.21,0,0,1-5.52.21,12.24,12.24,0,0,0,11.42,8.49A24.53,24.53,0,0,1,5.33,52.41a25.58,25.58,0,0,1-2.92-.17,34.68,34.68,0,0,0,18.74,5.49"/></svg>