<svg xmlns="http://www.w3.org/2000/svg" viewBox="0 0 170 422"><defs><style>.cls-1{isolation:isolate;}.cls-2{fill:#f5a784;}.cls-3{fill:#3b2645;}.cls-4{fill:#e0855c;}.cls-5{fill:#8c3d3d;}.cls-6{fill:#fff;}.cls-7{fill:#dcdfeb;}.cls-8{fill:#780d54;}.cls-9{fill:#c8ccde;}.cls-10{fill:#dadeea;}.cls-11{fill:#f0f3ff;}.cls-12{fill:#db1616;opacity:0.15;mix-blend-mode:overlay;}</style></defs><g class="cls-1"><g id="graph"><path class="cls-2" d="M134.32,403.74a50.34,50.34,0,0,1,2,7.77c.08.42.16.87.25,1.33.26,1.44.52,3.07.76,4.89s24.47,3.4,27.12,1.58-.43-2.67-.43-2.67c-3.44-.1-10.88-2.28-13.38-3.92l-.08-.06c-7-4.55-7.1-10.25-7.1-10.25C138.63,395.66,134.32,403.74,134.32,403.74Z"/><path class="cls-2" d="M20.27,419.21c2.69,1.86,27.44.1,27.68-1.64s.59-3.5.79-5c0-.14,0-.26.06-.39,1-7.19,1.15-10.08,1.15-10.08s-5.29-7.12-10.27-.23c0,0,.61,7.69-5.31,10.56l-.83.38c-3.18,1.4-9.65,3.54-12.86,3.64C20.68,416.48,17.58,417.35,20.27,419.21Z"/><path class="cls-3" d="M136.34,411.51c.08.42.16.87.25,1.33.26,1.44.52,3.07.76,4.89s24.47,3.4,27.12,1.58-.43-2.67-.43-2.67c-3.44-.1-10.88-2.28-13.38-3.92l-.08-.06A28.85,28.85,0,0,1,136.34,411.51Z"/><path class="cls-3" d="M20.27,419.21c2.69,1.86,27.44.1,27.68-1.64s.59-3.5.79-5c0-.14,0-.26.06-.39a49.09,49.09,0,0,1-15.26.63c-3.18,1.4-9.65,3.54-12.86,3.64C20.68,416.48,17.58,417.35,20.27,419.21Z"/><path class="cls-2" d="M144.34,54.42S151,60.24,155.58,57a28.33,28.33,0,0,1,2.52-8.73c2.1-4.31,7-13,6.82-16.55a7.05,7.05,0,0,0-.52-1.86,6,6,0,0,0-.75-1.39A6.35,6.35,0,0,0,162,26.81a6.41,6.41,0,0,0-1-.54,7,7,0,0,0-1.94-.57,10.87,10.87,0,0,0-1.2-.09h-.44a2.2,2.2,0,0,0-1.94,1.26c-1.29,2.65-4.57,9.11-6.61,11.09,0,0,1.2-6.53-.4-7.83l-1.41-.2a60.26,60.26,0,0,1-2.82,11.55C141.76,48,144.34,54.42,144.34,54.42Z"/><path class="cls-4" d="M152,37.14c0,.07.05.14.09.08a28.71,28.71,0,0,0,7-11.52,10.87,10.87,0,0,0-1.2-.09A42.5,42.5,0,0,1,152,37.14Z"/><path class="cls-4" d="M154.79,38.8c0,.06.06.12.11.08A28.78,28.78,0,0,0,162,26.81a6.41,6.41,0,0,0-1-.54A44.3,44.3,0,0,1,154.79,38.8Z"/><path class="cls-4" d="M157.58,40.61s0,.12.1.08a29.1,29.1,0,0,0,6.72-10.81,6,6,0,0,0-.75-1.39A44.16,44.16,0,0,1,157.58,40.61Z"/><path class="cls-4" d="M149.15,38.91c1.83,1.24,1.88,5.09,1.23,7-.09.25-.52.28-.52,0a20,20,0,0,0-.12-3.63A16.39,16.39,0,0,1,149,39C149,38.94,149.09,38.87,149.15,38.91Z"/><path class="cls-3" d="M30.77,223.72c0,4.75,0,9.88.12,15.26.93,63.77,7.14,165.6,7.14,165.6a21.53,21.53,0,0,0,13,1.92s17-180,18.62-188.65c.87-4.77,2.93-5.21,4.61-4.65a4.81,4.81,0,0,1,3,3.12c4,12,22.68,82.65,24.91,90.79,2.34,8.62,30.57,98.77,30.57,98.77,8.73,2.24,14-2.35,14-2.35S134.14,320.94,131,302.16s-26.15-128.63-26.15-128.63H35C34.39,179.7,30.77,212.33,30.77,223.72Z"/><path class="cls-5" d="M81.31,36.52S80.24,23.2,84.55,13.2c-3.49-2.83-7.23,1.11-7.23,1.11s3.37-9.37-1.44-12.46-12.21,2.84-15,7.28c0,0,2-3.57-1.48-5.67S40.23,17.4,43.31,30.6s4.2,9.5,4.2,9.5S80.33,38.22,81.31,36.52Z"/><path class="cls-4" d="M78.55,33.94s3-3.63,6,0-2.12,10.58-6,10.88C78.55,44.82,78.1,35.5,78.55,33.94Z"/><path class="cls-2" d="M22.2,76c1.95,4.66,9.21,22.56,11.55,37.09,1.25,7.73,6,34.32,6,34.32,27.39,7.53,57.51,0,57.51,0s16.53-69.39,3.81-77.57c-6.28-4-26.6-4-26.6-4l-.37-4L73.2,52a28.15,28.15,0,0,1-22.69-5.54,77.7,77.7,0,0,1,.94,9.1c.33,5.55.37,10.89.37,10.89a60.86,60.86,0,0,0-29,7.74A1.47,1.47,0,0,0,22.2,76Z"/><path class="cls-4" d="M50.51,46.48C54,62.46,70.1,61.36,73.88,59.25L73.2,52A28.15,28.15,0,0,1,50.51,46.48Z"/><path class="cls-2" d="M77.86,23.44c2,2.09,2.17,6.78,2.34,12C80.71,51.11,76,56,68,56.87S51.58,54.65,49.86,40.1c-.87-7.28-1.79-14,.86-17.15C54.67,18.26,71.69,17,77.86,23.44Z"/><path class="cls-2" d="M51,38s-2.45-6.51-6.33-3.06,1.48,13.27,7.41,12.54C52.05,47.48,52.86,40.22,51,38Z"/><path class="cls-2" d="M102.21,70.71c3.14,2.49,12.28,10.31,30.29,29.88,0,0,9-36.94,11.84-46.17L155.58,57s4.08,50.07-12.28,68.74a10.66,10.66,0,0,1-11.66,3c-5.95-2.15-16.19-7.81-32.45-22.31,0,0-10-19.63.75-35.33A1.55,1.55,0,0,1,102.21,70.71Z"/><path class="cls-2" d="M12.92,210.79s.53,3.81.67,8.62.37,15.34,2.18,18.37a7.45,7.45,0,0,0,1.34,1,3.81,3.81,0,0,0,.4.23,8.82,8.82,0,0,0,3.16,1l.31,0a9.61,9.61,0,0,0,3.09-.23l.28-.08a12,12,0,0,0,2.73-1.1s-.48-10.73.66-14.16c0,0,2,6.32,4,6.74l1.34-.48s-1.34-7.06-1.65-10.25c-.75-7.78-7.35-12.69-7.35-12.69S15.52,205.8,12.92,210.79Z"/><path class="cls-2" d="M27.42,72.29a10.71,10.71,0,0,0-7.5,4.83c-5.3,8-16.47,67.19-16.5,79.09,0,21.07,9.91,58.59,9.91,58.59s8.78,1.89,12.09-5.34c0,0-2.73-45.87-1.82-54S32.35,115.12,36,101.57C39.1,89.72,38.34,71,27.42,72.29Z"/><path class="cls-4" d="M46.45,37.9a5.46,5.46,0,0,1,2.36,1.53,6.68,6.68,0,0,1,1.72,2.2c.11.27-.26.43-.44.26-.5-.46-.9-1-1.37-1.53a3,3,0,0,1-1.14.9c-.35.13-.62-.31-.46-.61a2.77,2.77,0,0,1,.94-.89,14.93,14.93,0,0,1-1.87-1.4A.27.27,0,0,1,46.45,37.9Z"/><path class="cls-4" d="M67.15,41.44c.68-.11,2.26.3,2.58-.44s-.83-4.27-1-4.89a61.26,61.26,0,0,1-1.58-6.49.13.13,0,0,1,.24-.07c1.59,3.6,2.18,8,3.15,11.86a.35.35,0,0,1-.33.43c-1,0-2,.2-3,.2C66.89,42,66.79,41.49,67.15,41.44Z"/><path class="cls-6" d="M70.56,46.31s-4.9.73-8.6-1.49c0,0,1.28,3.21,4.3,4S70.56,46.31,70.56,46.31Z"/><path class="cls-4" d="M24.07,239.89l.28-.08a107.76,107.76,0,0,1-.36-14.4c0-.09-.15-.12-.17,0A34.58,34.58,0,0,0,24.07,239.89Z"/><path class="cls-4" d="M20.67,240.08l.31,0a109.58,109.58,0,0,1-.37-14.4c0-.09-.15-.12-.17,0A34.51,34.51,0,0,0,20.67,240.08Z"/><path class="cls-4" d="M17.11,238.81a3.81,3.81,0,0,0,.4.23,116.64,116.64,0,0,1-.29-13.63.08.08,0,0,0-.16,0A33.15,33.15,0,0,0,17.11,238.81Z"/><path class="cls-7" d="M5,117.05c-.22,1,.55,2,1.94,2.91a28.92,28.92,0,0,0,6.82,3A139.4,139.4,0,0,0,31,127l2.71-13.88A312.7,312.7,0,0,1,35,173.53s8.9,6.68,35.57,5.56,34.29-5.56,34.29-5.56c-5.3-53.07,0-61.15,0-61.15s6.47,5.27,8.88,7.38c1.4,1.21,6.09-5.77,9.64-13.25a61.61,61.61,0,0,0,3.06-7.46,17.92,17.92,0,0,0,1.15-6.53s-20.32-22.28-27.25-24.68-21-1.74-21-1.74-6.21,10.59-17.1,9.62c-13.23-1.21-13.87-9.1-13.87-9.1s-26.91-.44-32.94,14.3S6.23,111.63,5,117.05Z"/><polygon class="cls-8" points="70.56 72.22 66.29 81.85 60.92 81.85 57.5 71.34 70.56 72.22"/><polygon class="cls-9" points="74.75 61.05 66.29 69.84 71.18 78.64 80.87 65.73 74.75 61.05"/><polygon class="cls-9" points="51.28 61.31 61.63 70.06 56.02 80.14 46.34 67.22 51.28 61.31"/><path class="cls-8" d="M66.29,81.85s5.54,45.89,6.21,74.55A12.54,12.54,0,0,1,64,157.54s-4-57.45-3.11-75.69A5.54,5.54,0,0,1,66.29,81.85Z"/><polygon class="cls-9" points="96.71 95.08 96.71 115.4 87.25 121.5 77.1 115.4 76.22 95.08 96.71 95.08"/><path class="cls-9" d="M100.2,71.32a84.36,84.36,0,0,1,2.43,28.82.24.24,0,0,1-.47,0c-.39-9.61-2-19.19-2.3-28.77A.17.17,0,0,1,100.2,71.32Z"/><path class="cls-9" d="M28.47,73.37c4.2.27,5.2,8.58,5.8,11.57a80.83,80.83,0,0,1,1.24,22.17.29.29,0,0,1-.57,0c-.49-5.3-.45-10.63-1.06-15.91s-1.6-13.62-5.71-17.1A.43.43,0,0,1,28.47,73.37Z"/><path class="cls-10" d="M7,120a28.92,28.92,0,0,0,6.82,3,3.53,3.53,0,0,0,.78-1.6l.61-3a3.6,3.6,0,0,0-.57-2.79l-.14-.2a3.61,3.61,0,0,0-6.28,1l-1,2.79A2.87,2.87,0,0,0,7,120Z"/><path class="cls-3" d="M26.16,208.71s-8.49-.45-14.25,4.1l-2-5.36s3.34-3.89,16.23-3.13Z"/><path class="cls-11" d="M21.15,206.89a3.64,3.64,0,1,0-3.64,3.64A3.64,3.64,0,0,0,21.15,206.89Z"/><path class="cls-12" d="M164,416.64c-3.44-.1-10.88-2.28-13.38-3.92l-.08-.06a15.74,15.74,0,0,1-6.48-7.6,11.68,11.68,0,0,0,2.56-1.53S134.14,320.94,131,302.16s-26.15-128.63-26.15-128.63c-5.3-53.07,0-61.15,0-61.15s6.47,5.27,8.88,7.38c.33.28.84.1,1.47-.41,7.42,5.33,12.78,8,16.48,9.36a10.66,10.66,0,0,0,11.66-3C159.66,107.09,155.58,57,155.58,57a28,28,0,0,1,2.52-8.73c2.1-4.31,7-13,6.82-16.55a7.05,7.05,0,0,0-.52-1.86,6,6,0,0,0-.75-1.39A6.35,6.35,0,0,0,162,26.81a6.41,6.41,0,0,0-1-.54,7,7,0,0,0-1.94-.57,10.87,10.87,0,0,0-1.2-.09h-.44a2.2,2.2,0,0,0-1.94,1.26c-1.29,2.65-4.57,9.11-6.61,11.09,0,0,1.2-6.53-.4-7.83l-1.41-.2a60.26,60.26,0,0,1-2.82,11.55c-2.48,6.47.1,12.94.1,12.94-2.81,9.23-11.84,46.17-11.84,46.17-1.79-2-3.49-3.77-5.11-5.49a10.38,10.38,0,0,0,.15-2.58s-20.32-22.28-27.25-24.68c-5.63-2-16-1.89-19.67-1.79l.25-.32-6.12-4.68-.64.67-.6-6.44c3.17-1.75,5.34-5,6.25-10.76,3.67-1.38,7.56-7.32,4.84-10.58a3.58,3.58,0,0,0-3.4-1.57c0-4.73.54-12.65,3.35-19.17-3.49-2.83-7.23,1.11-7.23,1.11s3.37-9.37-1.44-12.46-12.21,2.84-15,7.28c0,0,2-3.57-1.48-5.67S40.23,17.4,43.31,30.6c.43,1.81.81,3.29,1.16,4.52-3.24,3.3,1,11.6,6.21,12.34.36,2.28.6,5.22.77,8.12.13,2.17.21,4.31.27,6.11l-.44-.37-4.46,5.32c-5.73.16-26.26,1.63-31.43,14.28C9.37,95.68,6.23,111.63,5,117.05c-.22,1,.55,2,1.94,2.91a15.65,15.65,0,0,0,1.61.92c-2.93,15.36-5.15,30-5.17,35.33,0,14.89,4.94,38,7.85,50.27a5.52,5.52,0,0,0-1.34,1l2,5.36c.25-.2.51-.38.77-.56.41,1.63.65,2.55.65,2.55h0c.1,1.32.2,2.9.25,4.6.14,4.8.37,15.34,2.18,18.37a7.45,7.45,0,0,0,1.34,1,3.81,3.81,0,0,0,.4.23,8.82,8.82,0,0,0,3.16,1l.31,0a9.61,9.61,0,0,0,3.09-.23l.28-.08a12,12,0,0,0,2.73-1.1s-.48-10.73.66-14.16c0,0,1.4,4.49,3.06,6.15q0,4,.09,8.28c.93,63.77,7.14,165.6,7.14,165.6.47.23.95.44,1.41.62a9.63,9.63,0,0,1-5.07,7.26l-.83.38c-3.18,1.4-9.65,3.54-12.86,3.64,0,0-3.1.87-.41,2.73s27.44.1,27.68-1.64.59-3.5.79-5c0-.14,0-.26.06-.39q.45-3.34.7-5.5A14,14,0,0,0,51,406.5s17-180,18.62-188.65c.87-4.77,2.93-5.21,4.61-4.65a4.81,4.81,0,0,1,3,3.12c4,12,22.68,82.65,24.91,90.79,2.34,8.62,30.57,98.77,30.57,98.77a20,20,0,0,0,2.49.46c.35,1.25.77,3,1.2,5.17.08.42.16.87.25,1.33.26,1.44.52,3.07.76,4.89s24.47,3.4,27.12,1.58S164,416.64,164,416.64ZM31,218a20.2,20.2,0,0,0-5.57-9c0-.1,0-.2,0-.32h.79v-4.39c-.36,0-.69,0-1,0-.68-12.23-2.24-42.37-1.52-48.81.5-4.54,3.17-16.58,6.06-28.69L31,127l2.71-13.88A312.7,312.7,0,0,1,35,173.53C34.48,178.86,31.7,204,31,218Z"/></g></g></svg>